<svg id="Слой_1" data-name="Слой 1" xmlns="http://www.w3.org/2000/svg" viewBox="0 0 197.615 193.028"><defs><style>.cls-1{fill:#999;}</style></defs><path class="cls-1" d="M111.913,75.578h1.814c12.817,0,25.635.021,38.452-.023,1.936-.007,3.425.391,3.837,2.562,4,0,7.9,0,11.8,0a10.627,10.627,0,0,1,1.516.049,2.624,2.624,0,0,1,2.391,2.67,2.546,2.546,0,0,1-2.643,2.413c-3.5.05-6.991.02-10.487.023h-1.782c.588,3.716,1.142,7.257,1.711,10.8,2.264,14.089,4.645,28.161,6.771,42.271a23.082,23.082,0,0,1-23.044,26.839q-46.508.128-93.014,0a22.965,22.965,0,0,1-23.316-24.208c.188-4.425,1.181-8.82,1.881-13.216q3.555-22.338,7.166-44.668c.152-.949.277-1.9.465-2.846.4-2.017,1.149-2.652,3.219-2.661,4.863-.02,9.727-.007,14.59-.007q5.777,0,11.551,0c.345,0,.691-.038,1.247-.07,0-3.341,0-6.613,0-9.885,0-6.939-.019-13.879.018-20.818.02-3.525,1.749-6.291,4.206-8.631,1.48-1.41,2.81-3.068,5.125-3.276a7.285,7.285,0,0,1,6.147,1.85c3.348,3.189,5.294,6.812,5.192,11.638-.193,9.115-.056,18.237-.056,27.355v1.829c1.942,0,3.752.041,5.556-.04.307-.014.714-.5.866-.858q4.585-10.825,9.1-21.682a3.312,3.312,0,0,0,.144-1.617c-1.088-8.614,6.156-18.232,13.333-20.9a9.7,9.7,0,0,1,12.872,6.053c2.5,7.155-.412,18.339-6.566,22.566a12.39,12.39,0,0,0-3.876,4.8q-2.726,5.082-5.455,10.162C112.405,74.482,112.215,74.935,111.913,75.578ZM95.722,80.736H42.374a3.2,3.2,0,0,0-1.2.033c-.407.181-.951.543-1.022.908-.468,2.383-.83,4.786-1.216,7.184-2.5,15.589-4.785,31.218-7.576,46.755-2.29,12.745,7,22.592,18.805,22.5,30.549-.229,61.1-.065,91.65-.084,11.953-.007,20.247-9.919,18.318-21.613q-4.447-26.961-8.657-53.963c-.229-1.459-.738-1.756-2.1-1.753Q122.549,80.773,95.722,80.736Zm28.63-38.414c-.127-.967-.186-1.981-.4-2.962-.841-3.8-3.526-5.418-6.963-3.756a16.289,16.289,0,0,0-9.5,13.141,1.861,1.861,0,0,0,.945,1.383c3.062,1.547,6.187,2.968,9.257,4.5a1.546,1.546,0,0,0,2.107-.354C123.039,50.949,123.92,46.759,124.352,42.322ZM81.5,59.987v-1.71c0-4.094-.118-8.193.037-12.282.124-3.273-1.371-5.624-3.726-7.553a2.191,2.191,0,0,0-2.026-.269c-2.416,1.946-4.677,4.027-4.616,7.562.074,4.245.015,8.492.022,12.738,0,.486.052.971.083,1.514Zm-.07,5.45H71.311V75.481H81.433Zm28.541,2.682-7.109-3.392L98.34,75.573c2.514,0,4.732.039,6.947-.038a1.675,1.675,0,0,0,1.1-.819C107.582,72.61,108.709,70.463,109.974,68.119Zm4.9-9.149-7.98-3.807-1.952,4.72,7.518,3.571Z"/><path class="cls-1" d="M94.338,98.759H54.691c-.456,0-.913.02-1.367-.011a2.569,2.569,0,1,1-.07-5.135c.4-.033.809-.013,1.214-.013h79.9c2.6,0,3.871.871,3.84,2.62-.031,1.706-1.262,2.539-3.769,2.539Q114.389,98.761,94.338,98.759Z"/><path class="cls-1" d="M137.839,151.423c-.354,0-.711.029-1.061,0a2.5,2.5,0,0,1-2.378-2.335,2.54,2.54,0,0,1,2.049-2.622,28.364,28.364,0,0,0,5.121-1.226,10.657,10.657,0,0,0,6.48-9.361,7.686,7.686,0,0,1,.135-1.051,2.567,2.567,0,0,1,2.673-2.19,2.538,2.538,0,0,1,2.373,2.664,14.366,14.366,0,0,1-1.784,7.288A16.147,16.147,0,0,1,137.839,151.423Z"/></svg>