<svg id="Слой_1" data-name="Слой 1" xmlns="http://www.w3.org/2000/svg" viewBox="0 0 197.615 193.028"><defs><style>.cls-1{fill:#7f47dd;}</style></defs><path class="cls-1" d="M46.325,169.682a34.041,34.041,0,0,1-4.988-1.994A12.891,12.891,0,0,1,34.6,156.113c-.074-18.345-.038-36.69-.026-55.035a4.588,4.588,0,1,1,9.162.106q.017,26.873.006,53.745c0,3.9,1.681,5.578,5.574,5.579H71.271v-1.751q0-23.862,0-47.725c0-8.986,5.782-14.739,14.807-14.74q12.9,0,25.8,0c8.533.009,14.434,5.879,14.44,14.386q.016,24.006,0,48.012v1.817h2.249q10.035,0,20.069,0c3.411,0,5.207-1.8,5.207-5.224q.006-38.481.024-76.963a2.516,2.516,0,0,0-1.035-2.16Q127.6,55.18,102.4,34.159c-2.61-2.174-4.58-2.18-7.164-.027Q64.9,59.4,34.574,84.681a6.879,6.879,0,0,0-.657.555c-2.5,2.686-6.557,2.837-8.524-1.559V81.384a15.128,15.128,0,0,1,2.049-2.674Q58.452,52.8,89.526,26.966c5.859-4.873,12.781-4.81,18.669.089q11.457,9.532,22.9,19.074c2.148,1.789,4.3,3.571,6.7,5.559,0-2.83-.015-5.341,0-7.851a4.6,4.6,0,0,1,4.537-4.878c2.661-.025,4.616,2.04,4.63,4.936.017,3.583.269,7.191-.07,10.741-.337,3.526.941,5.713,3.7,7.859,6.742,5.25,13.212,10.852,19.759,16.351a4.545,4.545,0,0,1,.787,6.609c-1.692,2.025-4.409,2.2-6.654.441l-1.457-1.149v7.309q0,31.743-.006,63.487a13.786,13.786,0,0,1-9.595,13.5c-.713.231-1.437.429-2.156.643ZM80.446,160.4h36.7v-1.38q0-24.147,0-48.295c0-3.477-1.806-5.261-5.313-5.263q-12.972,0-25.944,0c-3.73,0-5.443,1.7-5.443,5.412q0,24,0,48.008Z"/><path class="cls-1" d="M98.792,133.023A4.583,4.583,0,1,1,94.28,128.4,4.616,4.616,0,0,1,98.792,133.023Z"/></svg>