<svg id="Слой_1" data-name="Слой 1" xmlns="http://www.w3.org/2000/svg" viewBox="0 0 197.615 193.028"><defs><style>.cls-1{fill:#999;}</style></defs><path class="cls-1" d="M175.588,141.473c-.366,1.187-.639,2.413-1.113,3.555a13.937,13.937,0,0,1-22.413,4.947c-5.946-5.561-11.574-11.462-17.338-17.217-5.482-5.473-10.974-10.935-16.414-16.449a1.645,1.645,0,0,0-2.172-.391,39.88,39.88,0,1,1,23.993-42.3,39.066,39.066,0,0,1-2.408,20.149,2.083,2.083,0,0,0,.515,2.682c10.176,10.108,20.261,20.306,30.466,30.384,3.133,3.094,6.01,6.248,6.884,10.741Zm-74.937-31.439a30.9,30.9,0,1,0-30.892-30.87A30.82,30.82,0,0,0,100.651,110.034Zm24.781.937a9.584,9.584,0,0,1,1.054.823q14.254,14.235,28.493,28.486c1.059,1.059,2.07,2.174,3.2,3.155a5.04,5.04,0,0,0,8.23-2.541c.585-2.167-.253-3.869-1.771-5.385q-15.744-15.712-31.46-31.45c-.233-.233-.5-.432-.751-.646l.4.563Z"/><path class="cls-1" d="M75.724,150.76q-24.134,0-48.268-.011a8.11,8.11,0,0,1-2.356-.279,4.408,4.408,0,0,1-3.053-4.623,4.563,4.563,0,0,1,3.991-4.049,13.333,13.333,0,0,1,1.5-.034q48.194,0,96.386,0a9.217,9.217,0,0,1,1.792.089,4.49,4.49,0,0,1-.523,8.888c-.5.044-1,.016-1.5.016Z"/><path class="cls-1" d="M49.321,122.57c7.5,0,14.992-.022,22.488.008,3.446.013,5.67,3.076,4.453,6.1a4.264,4.264,0,0,1-4.174,2.871q-22.788.037-45.577,0a4.485,4.485,0,1,1,.172-8.968C34.229,122.552,41.775,122.571,49.321,122.57Z"/><path class="cls-1" d="M39.712,103.373c4.2,0,8.4-.008,12.594,0,3.051.008,5.1,1.82,5.1,4.487s-2.059,4.5-5.086,4.5q-12.6.009-25.19,0c-3.037,0-5.09-1.823-5.094-4.492s2.038-4.492,5.082-4.5C31.315,103.364,35.513,103.373,39.712,103.373Z"/><path class="cls-1" d="M36.234,84.179c3.049,0,6.1-.018,9.147,0a4.525,4.525,0,0,1,4.828,4.454c.024,2.616-2.02,4.527-4.906,4.533q-9.222.021-18.443,0a4.5,4.5,0,1,1-.072-8.984C29.936,84.157,33.085,84.179,36.234,84.179Z"/></svg>